# xmcd CD database file
#
# Track frame offsets:
#	150
#	12599
#	32995
#	54283
#	76447
#	104684
#	129263
#	182890
#	210661
#	222101
#	257113
#	303732
#
# Disc length: 4243 seconds
#
# Revision: 0
# Processed by: cddbd v1.5.2PL0 Copyright (c) Steve Scherf et al.
# Submitted via: CDex 1.51
#
DISCID=ad10910c
DTITLE=Coleman Hawkins - The Evolution of an Artist-CD1
DYEAR=2011
DGENRE=Jazz
TTITLE0=Look Out Jack
TTITLE1=Sophisticated Lady
TTITLE2=Until The Real Thing Comes Along
TTITLE3=My Babe
TTITLE4=Lester Leaps In
TTITLE5=Ruby My Dear
TTITLE6=Beans Blues
TTITLE7=Poor Butterfly
TTITLE8=Indian Summer
TTITLE9=Take The 'A' Train
TTITLE10=Hawk Eyes
TTITLE11=Greensleeves
EXTD=YEAR: 2011
EXTT0=
EXTT1=
EXTT2=
EXTT3=
EXTT4=
EXTT5=
EXTT6=
EXTT7=
EXTT8=
EXTT9=
EXTT10=
EXTT11=
PLAYORDER=
